{
  "accessors": [
    {
      "bufferView": 2,
      "componentType": 5126,
      "count": 7459,
      "max": [
        3.8917899131774902,
        1.927489995956421,
        1.1016700267791748
      ],
      "min": [
        -3.8917899131774902,
        -2.700740098953247,
        -1.1975699663162231
      ],
      "type": "VEC3"
    },
    {
      "bufferView": 2,
      "byteOffset": 89508,
      "componentType": 5126,
      "count": 7459,
      "max": [
        1.0,
        1.0,
        1.0
      ],
      "min": [
        -1.0,
        -1.0,
        -1.0
      ],
      "type": "VEC3"
    },
    {
      "bufferView": 1,
      "componentType": 5126,
      "count": 7459,
      "max": [
        0.9969800114631653,
        0.9923400282859802
      ],
      "min": [
        0.003019999945536256,
        0.003010000102221966
      ],
      "type": "VEC2"
    },
    {
      "bufferView": 0,
      "componentType": 5125,
      "count": 27306,
      "type": "SCALAR"
    },
    {
      "bufferView": 2,
      "byteOffset": 179016,
      "componentType": 5126,
      "count": 94,
      "max": [
        0.9919800162315369,
        -0.8179500102996826,
        0.9333800077438354
      ],
      "min": [
        -0.9919800162315369,
        -2.0751500129699707,
        -0.21895000338554382
      ],
      "type": "VEC3"
    },
    {
      "bufferView": 2,
      "byteOffset": 180144,
      "componentType": 5126,
      "count": 94,
      "max": [
        0.9640796184539795,
        -0.171430766582489,
        0.9628072381019592
      ],
      "min": [
        -0.9640796184539795,
        -0.9182894825935364,
        -0.08350985497236252
      ],
      "type": "VEC3"
    },
    {
      "bufferView": 1,
      "byteOffset": 59672,
      "componentType": 5126,
      "count": 94,
      "max": [
        0.8722500205039978,
        0.8694999814033508
      ],
      "min": [
        0.5511000156402588,
        0.7186400294303894
      ],
      "type": "VEC2"
    },
    {
      "bufferView": 0,
      "byteOffset": 109224,
      "componentType": 5125,
      "count": 216,
      "type": "SCALAR"
    },
    {
      "bufferView": 2,
      "byteOffset": 181272,
      "componentType": 5126,
      "count": 1344,
      "max": [
        3.2512800693511963,
        1.3903100490570068,
        0.6139699816703796
      ],
      "min": [
        -3.2512800693511963,
        -1.568850040435791,
        -0.9476400017738342
      ],
      "type": "VEC3"
    },
    {
      "bufferView": 2,
      "byteOffset": 197400,
      "componentType": 5126,
      "count": 1344,
      "max": [
        1.0,
        1.0,
        1.0
      ],
      "min": [
        -1.0,
        -1.0,
        -1.0
      ],
      "type": "VEC3"
    },
    {
      "bufferView": 1,
      "byteOffset": 60424,
      "componentType": 5126,
      "count": 1344,
      "max": [
        0.991599977016449,
        0.9969900250434875
      ],
      "min": [
        0.05835999920964241,
        0.003010000102221966
      ],
      "type": "VEC2"
    },
    {
      "bufferView": 0,
      "byteOffset": 110088,
      "componentType": 5125,
      "count": 3840,
      "type": "SCALAR"
    },
    {
      "bufferView": 2,
      "byteOffset": 213528,
      "componentType": 5126,
      "count": 156,
      "max": [
        1.607890009880066,
        0.7587400078773499,
        0.561489999294281
      ],
      "min": [
        -1.607890009880066,
        -2.302109956741333,
        -1.1714600324630737
      ],
      "type": "VEC3"
    },
    {
      "bufferView": 2,
      "byteOffset": 215400,
      "componentType": 5126,
      "count": 156,
      "max": [
        0.0072601609863340855,
        0.25813573598861694,
        0.0
      ],
      "min": [
        -0.0072601609863340855,
        -1.0,
        -1.0
      ],
      "type": "VEC3"
    },
    {
      "bufferView": 1,
      "byteOffset": 71176,
      "componentType": 5126,
      "count": 156,
      "max": [
        0.8929100036621094,
        0.9785299897193909
      ],
      "min": [
        0.07992000132799149,
        0.10193999856710434
      ],
      "type": "VEC2"
    },
    {
      "bufferView": 0,
      "byteOffset": 125448,
      "componentType": 5125,
      "count": 444,
      "type": "SCALAR"
    },
    {
      "bufferView": 2,
      "byteOffset": 217272,
      "componentType": 5126,
      "count": 174,
      "max": [
        3.8917899131774902,
        1.927489995956421,
        1.0572700500488281
      ],
      "min": [
        -3.8917899131774902,
        -2.2947299480438232,
        -1.1843899488449097
      ],
      "type": "VEC3"
    },
    {
      "bufferView": 2,
      "byteOffset": 219360,
      "componentType": 5126,
      "count": 174,
      "max": [
        0.9999185800552368,
        1.0,
        1.0
      ],
      "min": [
        -0.9999185800552368,
        -1.0,
        -1.0
      ],
      "type": "VEC3"
    },
    {
      "bufferView": 1,
      "byteOffset": 72424,
      "componentType": 5126,
      "count": 174,
      "max": [
        0.9927600026130676,
        0.8906599879264832
      ],
      "min": [
        0.023490000516176224,
        0.003010000102221966
      ],
      "type": "VEC2"
    },
    {
      "bufferView": 0,
      "byteOffset": 127224,
      "componentType": 5125,
      "count": 396,
      "type": "SCALAR"
    },
    {
      "bufferView": 2,
      "byteOffset": 221448,
      "componentType": 5126,
      "count": 72,
      "max": [
        2.8832600116729736,
        1.083240032196045,
        -0.06210999935865402
      ],
      "min": [
        -2.8832600116729736,
        -1.9495400190353394,
        -0.7450000047683716
      ],
      "type": "VEC3"
    },
    {
      "bufferView": 2,
      "byteOffset": 222312,
      "componentType": 5126,
      "count": 72,
      "max": [
        0.0,
        1.0,
        0.0
      ],
      "min": [
        0.0,
        -1.0,
        0.0
      ],
      "type": "VEC3"
    },
    {
      "bufferView": 1,
      "byteOffset": 73816,
      "componentType": 5126,
      "count": 72,
      "max": [
        0.9216399788856506,
        0.9671499729156494
      ],
      "min": [
        0.6776400208473206,
        0.38258999586105347
      ],
      "type": "VEC2"
    },
    {
      "bufferView": 0,
      "byteOffset": 128808,
      "componentType": 5125,
      "count": 192,
      "type": "SCALAR"
    }
  ],
  "asset": {
    "extras": {
      "author": "pinguinoconpulgares (https://sketchfab.com/pinguinoconpulgares)",
      "license": "CC-BY-4.0 (http://creativecommons.org/licenses/by/4.0/)",
      "source": "https://sketchfab.com/3d-models/cartoon-spaceship-a377d653202f45a68d441a987aa6dbda",
      "title": "Cartoon spaceship"
    },
    "generator": "Sketchfab-12.66.0",
    "version": "2.0"
  },
  "bufferViews": [
    {
      "buffer": 0,
      "byteLength": 129576,
      "name": "floatBufferViews",
      "target": 34963
    },
    {
      "buffer": 0,
      "byteLength": 74392,
      "byteOffset": 129576,
      "byteStride": 8,
      "name": "floatBufferViews",
      "target": 34962
    },
    {
      "buffer": 0,
      "byteLength": 223176,
      "byteOffset": 203968,
      "byteStride": 12,
      "name": "floatBufferViews",
      "target": 34962
    }
  ],
  "buffers": [
    {
      "byteLength": 427144,
      "uri": "scene.bin"
    }
  ],
  "images": [
    {
      "uri": "textures/PINTURA_baseColor.png"
    }
  ],
  "materials": [
    {
      "doubleSided": true,
      "name": "PINTURA",
      "pbrMetallicRoughness": {
        "baseColorTexture": {
          "index": 0
        },
        "metallicFactor": 0.0,
        "roughnessFactor": 0.6
      }
    },
    {
      "doubleSided": true,
      "emissiveFactor": [
        0.4289866150868411,
        0.09642997704210476,
        0.003691457663890422
      ],
      "name": "cabina",
      "pbrMetallicRoughness": {
        "baseColorFactor": [
          1.0,
          0.3002697828669517,
          0.0,
          1.0
        ],
        "metallicFactor": 0.0,
        "roughnessFactor": 0.6
      }
    },
    {
      "doubleSided": true,
      "name": "base",
      "pbrMetallicRoughness": {
        "baseColorTexture": {
          "index": 0
        },
        "metallicFactor": 0.0,
        "roughnessFactor": 0.6
      }
    },
    {
      "doubleSided": true,
      "name": "Material.004",
      "pbrMetallicRoughness": {
        "baseColorFactor": [
          0.0025794128887355328,
          0.0025794128887355328,
          0.0025794128887355328,
          1.0
        ],
        "metallicFactor": 0.0,
        "roughnessFactor": 0.6
      }
    },
    {
      "doubleSided": true,
      "name": "Material.005",
      "pbrMetallicRoughness": {
        "baseColorTexture": {
          "index": 0
        },
        "metallicFactor": 0.0,
        "roughnessFactor": 0.6
      }
    },
    {
      "doubleSided": true,
      "emissiveFactor": [
        1.0,
        1.0,
        0.041819434427638684
      ],
      "name": "Material.006",
      "pbrMetallicRoughness": {
        "baseColorFactor": [
          1.0,
          0.9022800986427694,
          0.0,
          1.0
        ],
        "metallicFactor": 0.0,
        "roughnessFactor": 0.6
      }
    }
  ],
  "meshes": [
    {
      "name": "Cube.003_0",
      "primitives": [
        {
          "attributes": {
            "NORMAL": 1,
            "POSITION": 0,
            "TEXCOORD_0": 2
          },
          "indices": 3,
          "material": 0,
          "mode": 4
        }
      ]
    },
    {
      "name": "Cube.003_1",
      "primitives": [
        {
          "attributes": {
            "NORMAL": 5,
            "POSITION": 4,
            "TEXCOORD_0": 6
          },
          "indices": 7,
          "material": 1,
          "mode": 4
        }
      ]
    },
    {
      "name": "Cube.003_2",
      "primitives": [
        {
          "attributes": {
            "NORMAL": 9,
            "POSITION": 8,
            "TEXCOORD_0": 10
          },
          "indices": 11,
          "material": 2,
          "mode": 4
        }
      ]
    },
    {
      "name": "Cube.003_3",
      "primitives": [
        {
          "attributes": {
            "NORMAL": 13,
            "POSITION": 12,
            "TEXCOORD_0": 14
          },
          "indices": 15,
          "material": 3,
          "mode": 4
        }
      ]
    },
    {
      "name": "Cube.003_4",
      "primitives": [
        {
          "attributes": {
            "NORMAL": 17,
            "POSITION": 16,
            "TEXCOORD_0": 18
          },
          "indices": 19,
          "material": 4,
          "mode": 4
        }
      ]
    },
    {
      "name": "Cube.003_5",
      "primitives": [
        {
          "attributes": {
            "NORMAL": 21,
            "POSITION": 20,
            "TEXCOORD_0": 22
          },
          "indices": 23,
          "material": 5,
          "mode": 4
        }
      ]
    }
  ],
  "nodes": [
    {
      "children": [
        1
      ],
      "matrix": [
        1.6147607564926147,
        0.0,
        0.0,
        0.0,
        0.0,
        3.5854891422384733e-16,
        -1.6147607564926147,
        0.0,
        0.0,
        1.6147607564926147,
        3.5854891422384733e-16,
        0.0,
        0.0,
        0.0,
        0.0,
        1.0
      ],
      "name": "Sketchfab_model"
    },
    {
      "children": [
        2,
        4,
        11,
        13
      ],
      "name": "Root"
    },
    {
      "children": [
        3
      ],
      "matrix": [
        1.0,
        0.0,
        0.0,
        0.0,
        0.0,
        1.0,
        0.0,
        0.0,
        0.0,
        0.0,
        1.0,
        0.0,
        -0.48584000000000005,
        0.16677000000000003,
        5.1096,
        1.0
      ],
      "name": "Hemi"
    },
    {
      "name": "Hemi"
    },
    {
      "children": [
        5,
        6,
        7,
        8,
        9,
        10
      ],
      "matrix": [
        0.18389000000000003,
        -0.17116,
        -0.07550000000000001,
        0.0,
        0.15843000000000004,
        0.19878000000000004,
        -0.06478000000000002,
        0.0,
        0.09948000000000003,
        -0.00019000000000000006,
        0.24272000000000002,
        0.0,
        -0.14220000000000002,
        0.014990000000000002,
        2.11183,
        1.0
      ],
      "name": "Cube.003"
    },
    {
      "mesh": 0,
      "name": "Cube.003_0"
    },
    {
      "mesh": 1,
      "name": "Cube.003_1"
    },
    {
      "mesh": 2,
      "name": "Cube.003_2"
    },
    {
      "mesh": 3,
      "name": "Cube.003_3"
    },
    {
      "mesh": 4,
      "name": "Cube.003_4"
    },
    {
      "mesh": 5,
      "name": "Cube.003_5"
    },
    {
      "children": [
        12
      ],
      "matrix": [
        0.97325,
        -0.09268000000000003,
        -0.21024000000000004,
        0.0,
        0.16749000000000006,
        0.91258,
        0.3730200000000001,
        0.0,
        0.15729000000000004,
        -0.39825000000000005,
        0.9036900000000001,
        0.0,
        0.7814,
        -1.53345,
        5.679060000000001,
        1.0
      ],
      "name": "Hemi.001"
    },
    {
      "name": "Hemi.001"
    },
    {
      "children": [
        14
      ],
      "matrix": [
        1.0,
        0.0,
        0.0,
        0.0,
        0.0,
        -1.0,
        0.0,
        0.0,
        0.0,
        -0.0,
        -1.0,
        0.0,
        0.24820000000000003,
        0.19277000000000002,
        0.6030700000000001,
        1.0
      ],
      "name": "Hemi.002"
    },
    {
      "name": "Hemi.002"
    }
  ],
  "samplers": [
    {
      "magFilter": 9729,
      "minFilter": 9987,
      "wrapS": 10497,
      "wrapT": 10497
    }
  ],
  "scene": 0,
  "scenes": [
    {
      "name": "Sketchfab_Scene",
      "nodes": [
        0
      ]
    }
  ],
  "textures": [
    {
      "sampler": 0,
      "source": 0
    }
  ]
}
